<?xml version="1.0" standalone="no"?>
<!DOCTYPE svg PUBLIC "-//W3C//DTD SVG 20010904//EN"
 "http://www.w3.org/TR/2001/REC-SVG-20010904/DTD/svg10.dtd">
<svg version="1.0" xmlns="http://www.w3.org/2000/svg"
 width="250.000000pt" height="250.000000pt" viewBox="0 0 250.000000 250.000000"
 preserveAspectRatio="xMidYMid meet">
<metadata>
Created by potrace 1.11, written by Peter Selinger 2001-2013
</metadata>
<g transform="translate(0.000000,250.000000) scale(0.100000,-0.100000)"
fill="#000000" stroke="none">
<path d="M75 1400 l0 -150 30 0 c17 0 25 4 20 8 -14 9 -14 135 0 144 7 5 6 8
-1 8 -7 0 -10 21 -9 58 2 68 -2 82 -24 82 -14 0 -16 -18 -16 -150z"/>
<path d="M170 1400 c0 -142 1 -150 19 -150 19 0 20 9 23 150 3 150 3 150 -19
150 -23 0 -23 -1 -23 -150z"/>
<path d="M387 1533 c-14 -50 -16 -72 -8 -77 7 -5 21 -67 22 -98 0 -4 6 -25 13
-45 7 -21 11 -44 9 -50 -3 -8 5 -13 20 -13 l24 0 -33 146 c-18 81 -35 148 -38
151 -2 2 -6 -4 -9 -14z"/>
<path d="M578 1400 l-3 -150 28 0 c16 0 26 4 23 9 -3 5 -6 72 -7 150 0 131 -2
141 -19 141 -18 0 -19 -11 -22 -150z"/>
<path d="M648 1534 c38 -31 36 -121 -2 -146 -7 -5 -4 -8 7 -8 32 0 57 37 57
83 0 47 -16 69 -60 82 l-25 8 23 -19z"/>
<path d="M817 1538 c11 -19 10 -272 -2 -280 -5 -4 4 -8 20 -8 l30 0 -3 150 -3
150 -25 0 c-18 0 -23 -4 -17 -12z"/>
<path d="M881 1543 c39 -10 49 -123 14 -149 -16 -12 -16 -14 -3 -14 46 0 74
65 54 126 -6 21 -46 45 -69 43 -7 -1 -5 -3 4 -6z"/>
<path d="M1060 1539 c0 -7 9 -43 21 -82 14 -49 20 -90 17 -138 -3 -66 -2 -69
20 -69 21 0 22 4 22 66 0 38 -9 95 -21 135 -12 38 -18 76 -15 84 4 11 -2 15
-19 15 -14 0 -25 -5 -25 -11z"/>
<path d="M1180 1539 c0 -5 5 -7 10 -4 6 3 10 8 10 11 0 2 -4 4 -10 4 -5 0 -10
-5 -10 -11z"/>
<path d="M1448 1523 c2 -16 8 -33 13 -38 4 -6 24 -54 43 -108 50 -137 56 -146
54 -69 -1 34 -4 62 -8 62 -4 0 -22 41 -40 90 -24 66 -37 90 -50 90 -13 0 -16
-6 -12 -27z"/>
<path d="M1546 1538 c3 -4 11 -5 19 -1 21 7 19 12 -4 10 -11 0 -18 -5 -15 -9z"/>
<path d="M1735 1524 c-3 -16 -8 -37 -10 -47 -2 -10 3 -29 10 -43 7 -14 19 -61
26 -105 11 -70 15 -79 34 -79 22 0 22 0 -12 147 -18 81 -36 149 -38 151 -2 2
-7 -9 -10 -24z"/>
<path d="M1928 1400 c-3 -149 -3 -150 19 -150 22 0 22 2 21 139 0 77 3 144 6
150 5 7 -2 11 -18 11 l-25 0 -3 -150z"/>
<path d="M2098 1400 c-3 -144 -2 -150 17 -150 19 0 20 7 20 150 0 135 -1 150
-17 150 -15 0 -17 -16 -20 -150z"/>
<path d="M2316 1528 c-29 -40 -14 -100 34 -143 13 -11 29 -35 37 -54 13 -31
13 -36 -6 -61 -19 -27 -19 -28 -1 -23 30 8 48 44 44 88 -2 28 -13 49 -42 79
-22 23 -42 49 -46 59 -9 27 3 65 22 70 12 3 10 5 -5 6 -12 0 -29 -9 -37 -21z"/>
<path d="M2391 1535 c9 -11 19 -27 22 -35 3 -8 5 1 5 20 0 19 -2 29 -5 22 -4
-10 -8 -10 -21 0 -16 12 -16 11 -1 -7z"/>
<path d="M340 1339 c0 -5 5 -7 10 -4 6 3 10 8 10 11 0 2 -4 4 -10 4 -5 0 -10
-5 -10 -11z"/>
<path d="M2201 1298 c0 -9 -8 -24 -17 -32 -14 -15 -14 -16 1 -16 18 0 29 21
22 47 -4 15 -5 16 -6 1z"/>
<path d="M2302 1280 c0 -19 2 -29 5 -22 4 10 8 10 21 0 16 -12 16 -11 1 7 -9
11 -19 27 -22 35 -3 8 -5 -1 -5 -20z"/>
<path d="M320 1260 c-13 -8 -12 -10 3 -10 9 0 17 5 17 10 0 12 -1 12 -20 0z"/>
<path d="M1670 1260 c-13 -8 -12 -10 3 -10 9 0 17 5 17 10 0 12 -1 12 -20 0z"/>
<path d="M1438 1253 c7 -3 16 -2 19 1 4 3 -2 6 -13 5 -11 0 -14 -3 -6 -6z"/>
<path d="M910 945 c-14 -16 -6 -35 16 -35 8 0 14 -5 14 -11 0 -6 -9 -8 -21 -4
-15 5 -19 4 -15 -4 4 -6 18 -11 32 -11 31 0 33 33 2 48 l-23 11 25 0 c20 1 22
3 10 11 -20 13 -26 12 -40 -5z"/>
<path d="M994 948 c-3 -4 1 -8 8 -8 8 0 14 -10 14 -22 -1 -13 4 -24 9 -25 6
-2 10 6 10 17 0 12 7 25 15 30 17 11 16 11 -23 14 -15 2 -30 -1 -33 -6z"/>
<path d="M1098 954 c-5 -4 -8 -20 -8 -35 0 -22 6 -30 24 -35 35 -8 46 2 46 43
0 38 -11 38 -17 0 -8 -50 -28 -44 -35 11 -2 13 -6 20 -10 16z"/>
<path d="M1213 952 c-6 -4 -11 -22 -11 -40 1 -28 4 -32 28 -32 15 0 33 7 40
15 12 15 5 55 -10 55 -5 0 -14 2 -22 5 -7 3 -18 1 -25 -3z m44 -29 c2 -6 -5
-17 -16 -23 -19 -10 -21 -8 -21 15 0 19 5 26 17 23 9 -2 18 -8 20 -15z"/>
<path d="M1392 943 c-27 -24 -14 -63 21 -63 43 0 60 35 31 64 -20 20 -27 20
-52 -1z m43 -13 c4 -6 1 -18 -6 -26 -12 -14 -14 -14 -26 2 -7 9 -10 21 -7 25
7 12 31 11 39 -1z"/>
<path d="M1556 952 c-13 -12 -5 -20 17 -15 l22 6 -22 -25 c-30 -32 -29 -38 8
-38 18 0 28 4 24 10 -4 6 -11 8 -16 5 -5 -4 -9 -1 -9 4 0 6 5 11 11 11 17 0 5
43 -13 46 -9 1 -19 -1 -22 -4z"/>
<path d="M1320 915 c0 -19 5 -35 10 -35 6 0 10 16 10 35 0 19 -4 35 -10 35 -5
0 -10 -16 -10 -35z"/>
</g>
</svg>
